<?xml version="1.0"?>
<svg xmlns="http://www.w3.org/2000/svg" width="512px" height="512px" viewBox="0 0 128 128"><g><g><path d="M103.914,54A41.97,41.97,0,0,0,91.83,35.517a1.75,1.75,0,1,0-2.324,2.617,38.452,38.452,0,0,1,11.076,16.944A1.75,1.75,0,1,0,103.914,54Z" data-original="#000000" class="active-path" data-old_color="#000000" fill="#E3E9ED"/><path d="M84.431,30.255a41.743,41.743,0,0,0-6.168-2.817,1.75,1.75,0,1,0-1.19,3.291,38.353,38.353,0,0,1,5.651,2.581,1.75,1.75,0,0,0,1.707-3.055Z" data-original="#000000" class="active-path" data-old_color="#000000" fill="#E3E9ED"/><path d="M121.693,60.6h-6.322a51.81,51.81,0,0,0-41.838-43.63,9.871,9.871,0,1,0-19.066,0A51.81,51.81,0,0,0,12.629,60.6H6.307a1.749,1.749,0,0,0-1.75,1.75v11.3a1.749,1.749,0,0,0,1.75,1.75H121.693a1.749,1.749,0,0,0,1.75-1.75v-11.3A1.749,1.749,0,0,0,121.693,60.6ZM57.629,14.427a6.371,6.371,0,1,1,12.4,2.026,50.665,50.665,0,0,0-12.058,0A6.387,6.387,0,0,1,57.629,14.427ZM64,19.593A48.331,48.331,0,0,1,111.839,60.6H16.161A48.331,48.331,0,0,1,64,19.593ZM119.943,71.9H8.057V64.1H119.943Z" data-original="#000000" class="active-path" data-old_color="#000000" fill="#E3E9ED"/><path d="M111.5,91H89.319a7.24,7.24,0,0,0-6.2-10.985H41.928a15.757,15.757,0,0,0-13.652,7.922L9.49,120.825a1.75,1.75,0,0,0,1.52,2.618H39.763a1.747,1.747,0,0,0,1.513-.872l9.907-17.082H111.5A7.243,7.243,0,1,0,111.5,91Zm0,10.985H50.175a1.75,1.75,0,0,0-1.514.872l-9.906,17.082H14.025l17.29-30.265a12.249,12.249,0,0,1,10.613-6.159H83.121a3.743,3.743,0,0,1,0,7.485H60.15a1.75,1.75,0,1,0,0,3.5H111.5a3.743,3.743,0,1,1,0,7.485Z" data-original="#000000" class="active-path" data-old_color="#000000" fill="#E3E9ED"/></g></g> </svg>
